<svg xmlns="http://www.w3.org/2000/svg" viewBox="0 0 128 128" role="img" aria-label="Flux and Crave mark">
  <defs>
    <linearGradient id="ring" x1="0%" y1="0%" x2="100%" y2="100%">
      <stop offset="0%" stop-color="#ffbf3f"/>
      <stop offset="100%" stop-color="#ff5339"/>
    </linearGradient>
  </defs>
  <rect width="128" height="128" rx="28" fill="#1a120d"/>
  <path d="M38 94c4-24 17-39 38-45-8 11-11 22-9 34 2 13 9 21 21 27-24 0-42-6-50-16z" fill="#ffd05f"/>
  <path d="M79 23c13 7 21 17 25 28 4 12 2 25-6 39-3-12-9-21-18-28-10-7-23-10-38-8 10-18 22-28 37-31z" fill="#ff5a3d"/>
  <path d="M27 75c7-12 17-18 30-20 11-1 22 2 34 10-10 2-18 7-24 15-7 9-10 20-8 34-21-10-32-23-32-39z" fill="url(#ring)"/>
</svg>